0
SECTION
2
HEADER
0
ENDSEC
0
SECTION
2
TABLES
0
TABLE
2
LAYER
70
2
0
LAYER
2
CUT
70
0
62
1
6
CONTINUOUS
0
LAYER
2
ETCH
70
0
62
3
6
CONTINUOUS
0
ENDTAB
0
ENDSEC
0
SECTION
2
ENTITIES
0
LINE
8
CUT
10
4.000
20
0.000
30
0
11
44.000
21
0.000
31
0
0
ARC
8
CUT
10
44.000
20
4.000
30
0
40
4.000
50
270.000
51
360.000
0
LINE
8
CUT
10
48.000
20
4.000
30
0
11
48.000
21
103.000
31
0
0
ARC
8
CUT
10
44.000
20
103.000
30
0
40
4.000
50
0.000
51
90.000
0
LINE
8
CUT
10
44.000
20
107.000
30
0
11
4.000
21
107.000
31
0
0
ARC
8
CUT
10
4.000
20
103.000
30
0
40
4.000
50
90.000
51
180.000
0
LINE
8
CUT
10
0.000
20
103.000
30
0
11
0.000
21
4.000
31
0
0
ARC
8
CUT
10
4.000
20
4.000
30
0
40
4.000
50
180.000
51
270.000
0
ARC
8
ETCH
10
8.000
20
8.000
30
0
40
4.000
50
0.000
51
360.000
0
ARC
8
ETCH
10
40.000
20
8.000
30
0
40
4.000
50
0.000
51
360.000
0
ARC
8
ETCH
10
8.000
20
99.000
30
0
40
4.000
50
0.000
51
360.000
0
ARC
8
ETCH
10
40.000
20
99.000
30
0
40
4.000
50
0.000
51
360.000
0
ENDSEC
0
EOF
